<?xml version="1.0" standalone="no"?>
<!DOCTYPE svg PUBLIC "-//W3C//DTD SVG 20010904//EN"
 "http://www.w3.org/TR/2001/REC-SVG-20010904/DTD/svg10.dtd">
<svg version="1.0" xmlns="http://www.w3.org/2000/svg"
 width="256.000000pt" height="256.000000pt" viewBox="0 0 256.000000 256.000000"
 preserveAspectRatio="xMidYMid meet">

<g transform="translate(0.000000,256.000000) scale(0.100000,-0.100000)"
fill="#000000" stroke="none">
<path d="M0 1280 l0 -1280 1280 0 1280 0 0 1280 0 1280 -1280 0 -1280 0 0
-1280z m1103 865 c31 -8 84 -28 117 -45 l60 -30 58 29 c119 60 273 78 396 46
72 -19 177 -73 231 -120 l40 -34 -83 -83 -82 -83 -28 17 c-90 58 -136 73 -217
73 -66 0 -90 -5 -135 -26 -116 -55 -182 -158 -182 -282 0 -94 26 -162 98 -252
158 -197 194 -425 100 -630 l-24 -53 42 -13 c22 -8 73 -14 111 -13 88 1 165
35 225 100 63 69 84 123 84 219 0 126 -15 149 -224 360 -99 99 -180 185 -180
190 0 13 152 165 165 165 19 0 362 -354 397 -410 68 -108 82 -160 82 -305 0
-113 -3 -138 -23 -190 -91 -231 -296 -375 -536 -375 -95 0 -172 18 -255 60
l-60 30 -58 -29 c-119 -60 -273 -78 -396 -46 -72 19 -177 73 -231 120 l-40 34
83 83 82 83 28 -17 c90 -58 136 -73 217 -73 66 0 90 5 135 26 135 64 205 199
179 343 -13 74 -32 111 -105 206 -97 127 -137 240 -137 385 0 86 21 182 52
244 l20 38 -42 14 c-23 8 -73 14 -112 13 -88 -1 -165 -35 -225 -100 -63 -69
-84 -123 -84 -219 0 -126 15 -149 224 -360 99 -99 180 -185 180 -190 0 -13
-152 -165 -165 -165 -19 0 -362 354 -397 410 -68 108 -82 160 -82 305 0 113 3
138 23 190 32 82 103 186 159 235 58 50 162 105 233 124 71 19 211 20 282 1z"/>
</g>
</svg>
